<?xml version="1.0" encoding="utf-8"?><svg xmlns="http://www.w3.org/2000/svg" xmlns:xlink="http://www.w3.org/1999/xlink" width="1347" height="770" preserveAspectRatio="xMidYMid" viewBox="0 0 1347 770" style="z-index:1;margin-right:-2px;display:block;background-repeat-y:initial;background-repeat-x:initial;animation-play-state:paused" ><g transform="translate(673.5,385) scale(1,1) translate(-673.5,-385)" style="transform:matrix(1, 0, 0, 1, 0, 0);animation-play-state:paused" ><linearGradient id="lg-0.5914577640363294" x1="0" x2="1" y1="0" y2="0" style="animation-play-state:paused" ><stop stop-color="#ff6d00" offset="0" style="animation-play-state:paused" ></stop>

  
<stop stop-color="#ff8700" offset="1" style="animation-play-state:paused" ></stop></linearGradient>
<path d="M 0 0 L 0 587.267 Q 224.5 577.092 449 561.637 T 898 386.543 T 1347 240.797 L 1347 0 Z" fill="url(#lg-0.5914577640363294)" opacity="0.27" style="opacity:0.27;animation-play-state:paused" ></path>
<path d="M 0 0 L 0 641.148 Q 224.5 572.489 449 522.955 T 898 404.317 T 1347 430.97 L 1347 0 Z" fill="url(#lg-0.5914577640363294)" opacity="0.27" style="opacity:0.27;animation-play-state:paused" ></path>
<path d="M 0 0 L 0 685.536 Q 224.5 549.846 449 511.511 T 898 360.994 T 1347 317.618 L 1347 0 Z" fill="url(#lg-0.5914577640363294)" opacity="0.27" style="opacity:0.27;animation-play-state:paused" ></path>
<path d="M 0 0 L 0 637.157 Q 224.5 632.188 449 611.342 T 898 436.745 T 1347 299.261 L 1347 0 Z" fill="url(#lg-0.5914577640363294)" opacity="0.27" style="opacity:0.27;animation-play-state:paused" ></path>
<path d="M 0 0 L 0 637.381 Q 224.5 529.909 449 502.135 T 898 442.692 T 1347 370.287 L 1347 0 Z" fill="url(#lg-0.5914577640363294)" opacity="0.27" style="opacity:0.27;animation-play-state:paused" ></path></g></svg>