<?xml version="1.0" standalone="no"?>
<svg xmlns:xlink="http://www.w3.org/1999/xlink" id="wave" style="transform:rotate(180deg); transition: 0.3s" viewBox="0 0 1440 490" version="1.1" xmlns="http://www.w3.org/2000/svg"><defs><linearGradient id="sw-gradient-0" x1="0" x2="0" y1="1" y2="0"><stop stop-color="rgba(255, 142.329, 106.143, 1)" offset="0%"/><stop stop-color="rgba(255, 179, 11, 1)" offset="100%"/></linearGradient></defs><path style="transform:translate(0, 0px); opacity:1" fill="url(#sw-gradient-0)" d="M0,147L80,130.7C160,114,320,82,480,73.5C640,65,800,82,960,106.2C1120,131,1280,163,1440,163.3C1600,163,1760,131,1920,155.2C2080,180,2240,261,2400,285.8C2560,310,2720,278,2880,245C3040,212,3200,180,3360,163.3C3520,147,3680,147,3840,187.8C4000,229,4160,310,4320,334.8C4480,359,4640,327,4800,261.3C4960,196,5120,98,5280,106.2C5440,114,5600,229,5760,285.8C5920,343,6080,343,6240,334.8C6400,327,6560,310,6720,326.7C6880,343,7040,392,7200,408.3C7360,425,7520,408,7680,408.3C7840,408,8000,425,8160,392C8320,359,8480,278,8640,212.3C8800,147,8960,98,9120,65.3C9280,33,9440,16,9600,24.5C9760,33,9920,65,10080,73.5C10240,82,10400,65,10560,114.3C10720,163,10880,278,11040,294C11200,310,11360,229,11440,187.8L11520,147L11520,490L11440,490C11360,490,11200,490,11040,490C10880,490,10720,490,10560,490C10400,490,10240,490,10080,490C9920,490,9760,490,9600,490C9440,490,9280,490,9120,490C8960,490,8800,490,8640,490C8480,490,8320,490,8160,490C8000,490,7840,490,7680,490C7520,490,7360,490,7200,490C7040,490,6880,490,6720,490C6560,490,6400,490,6240,490C6080,490,5920,490,5760,490C5600,490,5440,490,5280,490C5120,490,4960,490,4800,490C4640,490,4480,490,4320,490C4160,490,4000,490,3840,490C3680,490,3520,490,3360,490C3200,490,3040,490,2880,490C2720,490,2560,490,2400,490C2240,490,2080,490,1920,490C1760,490,1600,490,1440,490C1280,490,1120,490,960,490C800,490,640,490,480,490C320,490,160,490,80,490L0,490Z"/></svg>