<?xml version="1.0" standalone="no"?>
<svg xmlns:xlink="http://www.w3.org/1999/xlink" id="wave" style="transform:rotate(180deg); transition: 0.3s" viewBox="0 0 1440 490" version="1.1" xmlns="http://www.w3.org/2000/svg"><defs><linearGradient id="sw-gradient-0" x1="0" x2="0" y1="1" y2="0"><stop stop-color="rgba(253.15, 107.727, 0, 1)" offset="0%"/><stop stop-color="rgba(255, 194.894, 0, 1)" offset="100%"/></linearGradient></defs><path style="transform:translate(0, 0px); opacity:1" fill="url(#sw-gradient-0)" d="M0,294L26.7,261.3C53.3,229,107,163,160,187.8C213.3,212,267,327,320,334.8C373.3,343,427,245,480,187.8C533.3,131,587,114,640,106.2C693.3,98,747,98,800,81.7C853.3,65,907,33,960,49C1013.3,65,1067,131,1120,179.7C1173.3,229,1227,261,1280,245C1333.3,229,1387,163,1440,130.7C1493.3,98,1547,98,1600,114.3C1653.3,131,1707,163,1760,196C1813.3,229,1867,261,1920,236.8C1973.3,212,2027,131,2080,114.3C2133.3,98,2187,147,2240,187.8C2293.3,229,2347,261,2400,236.8C2453.3,212,2507,131,2560,122.5C2613.3,114,2667,180,2720,196C2773.3,212,2827,180,2880,171.5C2933.3,163,2987,180,3040,204.2C3093.3,229,3147,261,3200,285.8C3253.3,310,3307,327,3360,277.7C3413.3,229,3467,114,3520,122.5C3573.3,131,3627,261,3680,318.5C3733.3,376,3787,359,3813,351.2L3840,343L3840,490L3813.3,490C3786.7,490,3733,490,3680,490C3626.7,490,3573,490,3520,490C3466.7,490,3413,490,3360,490C3306.7,490,3253,490,3200,490C3146.7,490,3093,490,3040,490C2986.7,490,2933,490,2880,490C2826.7,490,2773,490,2720,490C2666.7,490,2613,490,2560,490C2506.7,490,2453,490,2400,490C2346.7,490,2293,490,2240,490C2186.7,490,2133,490,2080,490C2026.7,490,1973,490,1920,490C1866.7,490,1813,490,1760,490C1706.7,490,1653,490,1600,490C1546.7,490,1493,490,1440,490C1386.7,490,1333,490,1280,490C1226.7,490,1173,490,1120,490C1066.7,490,1013,490,960,490C906.7,490,853,490,800,490C746.7,490,693,490,640,490C586.7,490,533,490,480,490C426.7,490,373,490,320,490C266.7,490,213,490,160,490C106.7,490,53,490,27,490L0,490Z"/><defs><linearGradient id="sw-gradient-1" x1="0" x2="0" y1="1" y2="0"><stop stop-color="rgba(255, 99.651, 49.758, 1)" offset="0%"/><stop stop-color="rgba(255, 175.574, 0, 1)" offset="100%"/></linearGradient></defs><path style="transform:translate(0, 50px); opacity:0.9" fill="url(#sw-gradient-1)" d="M0,294L26.7,269.5C53.3,245,107,196,160,179.7C213.3,163,267,180,320,155.2C373.3,131,427,65,480,98C533.3,131,587,261,640,261.3C693.3,261,747,131,800,65.3C853.3,0,907,0,960,57.2C1013.3,114,1067,229,1120,302.2C1173.3,376,1227,408,1280,392C1333.3,376,1387,310,1440,245C1493.3,180,1547,114,1600,122.5C1653.3,131,1707,212,1760,277.7C1813.3,343,1867,392,1920,367.5C1973.3,343,2027,245,2080,187.8C2133.3,131,2187,114,2240,163.3C2293.3,212,2347,327,2400,326.7C2453.3,327,2507,212,2560,212.3C2613.3,212,2667,327,2720,310.3C2773.3,294,2827,147,2880,147C2933.3,147,2987,294,3040,326.7C3093.3,359,3147,278,3200,204.2C3253.3,131,3307,65,3360,32.7C3413.3,0,3467,0,3520,57.2C3573.3,114,3627,229,3680,228.7C3733.3,229,3787,114,3813,57.2L3840,0L3840,490L3813.3,490C3786.7,490,3733,490,3680,490C3626.7,490,3573,490,3520,490C3466.7,490,3413,490,3360,490C3306.7,490,3253,490,3200,490C3146.7,490,3093,490,3040,490C2986.7,490,2933,490,2880,490C2826.7,490,2773,490,2720,490C2666.7,490,2613,490,2560,490C2506.7,490,2453,490,2400,490C2346.7,490,2293,490,2240,490C2186.7,490,2133,490,2080,490C2026.7,490,1973,490,1920,490C1866.7,490,1813,490,1760,490C1706.7,490,1653,490,1600,490C1546.7,490,1493,490,1440,490C1386.7,490,1333,490,1280,490C1226.7,490,1173,490,1120,490C1066.7,490,1013,490,960,490C906.7,490,853,490,800,490C746.7,490,693,490,640,490C586.7,490,533,490,480,490C426.7,490,373,490,320,490C266.7,490,213,490,160,490C106.7,490,53,490,27,490L0,490Z"/></svg>