<svg style="object-fit:cover" id="my-svg" version="1" baseProfile="full" width="100%" height="100%" viewBox="0 0 1366 568" xmlns="http://www.w3.org/2000/svg"><rect width="1366" height="568" fill="#ffffff"/><defs><linearGradient id="linear-gradient" x1="0" x2="0" y1="1" y2="0"><stop offset="0%" stop-color="#ff1900ff"/><stop offset="100%" stop-color="#fbff00ff"/></linearGradient></defs><path transform="scale(1, 1)" d="M 0,568 V 0,113 C 46.601986710794804,106.34917720140459 93.20397342158961,99.69835440280919 146,110 C 198.7960265784104,120.30164559719081 257.78609302443635,147.55575959016784 295,140 C 332.21390697556365,132.44424040983216 347.651654480665,90.07860723651942 393,73 C 438.348345519335,55.92139276348059 513.6072890529036,64.12981146375452 560,86 C 606.3927109470964,107.87018853624548 623.9191893077207,143.40214690846247 664,146 C 704.0808106922793,148.59785309153753 766.7159537162139,118.26160090239568 821,111 C 875.2840462837861,103.73839909760432 921.2169958274234,119.55144948195475 963,122 C 1004.7830041725766,124.44855051804525 1042.4160629740927,113.53260116978534 1088,106 C 1133.5839370259073,98.46739883021466 1187.1187522762057,94.31814583890396 1244,91 C 1300.8812477237943,87.68185416109604 1361.1089279210842,85.19481547459887 1382,89 C 1402.8910720789158,92.80518452540113 1384.445536039458,102.90259226270057 1366,113 C 1366,113 1366,568 1366,568 Z" stroke="none" stroke-width="0" fill="url(#linear-gradient)" class="transition-all duration-300 ease-in-out delay-150" style="transform-origin: center center;"/></svg>