<svg style="object-fit:cover" id="my-svg" version="1" baseProfile="full" width="100%" height="100%" viewBox="0 0 1366 568" xmlns="http://www.w3.org/2000/svg"><rect width="1366" height="568" fill="#ffffff"/><defs><linearGradient id="linear-gradient" x1="0" x2="0" y1="1" y2="0"><stop offset="0%" stop-color="#ff3300ff"/><stop offset="100%" stop-color="#fff700ff"/></linearGradient></defs><path transform="scale(1, 1)" d="M 0,568 V 0,170 C 57.04553264604813,171.28773932253313 114.09106529209626,172.57547864506628 165,188 C 215.90893470790374,203.42452135493372 260.6812714776632,232.98582474226805 317,227 C 373.3187285223368,221.01417525773195 441.1838487972508,179.48122238586157 502,174 C 562.8161512027492,168.51877761413843 616.5833333333334,199.08928571428572 677,217 C 737.4166666666666,234.91071428571428 804.4828178694157,240.1616347569956 865,224 C 925.5171821305843,207.8383652430044 979.4853951890034,170.26417525773192 1032,175 C 1084.5146048109966,179.73582474226808 1135.5756013745704,226.7816642120766 1191,233 C 1246.4243986254296,239.2183357879234 1306.2121993127148,204.60916789396168 1366,170 C 1366,170 1366,568 1366,568 Z" stroke="none" stroke-width="0" fill="url(#linear-gradient)" class="transition-all duration-300 ease-in-out delay-150" style="transform-origin: center center;"/></svg>