<svg id="visual" viewBox="0 0 900 900" width="900" height="900" xmlns="http://www.w3.org/2000/svg" xmlns:xlink="http://www.w3.org/1999/xlink" version="1.1"><path d="M0 388L30 406.2C60 424.3 120 460.7 180 468.7C240 476.7 300 456.3 360 440.2C420 424 480 412 540 418.3C600 424.7 660 449.3 720 463.2C780 477 840 480 870 481.5L900 483L900 0L870 0C840 0 780 0 720 0C660 0 600 0 540 0C480 0 420 0 360 0C300 0 240 0 180 0C120 0 60 0 30 0L0 0Z" fill="#fcaf3c"></path><path d="M0 393L30 391C60 389 120 385 180 379.8C240 374.7 300 368.3 360 366.2C420 364 480 366 540 368.7C600 371.3 660 374.7 720 382.5C780 390.3 840 402.7 870 408.8L900 415L900 0L870 0C840 0 780 0 720 0C660 0 600 0 540 0C480 0 420 0 360 0C300 0 240 0 180 0C120 0 60 0 30 0L0 0Z" fill="#fba230"></path><path d="M0 280L30 286.2C60 292.3 120 304.7 180 310.3C240 316 300 315 360 295.7C420 276.3 480 238.7 540 231.5C600 224.3 660 247.7 720 265C780 282.3 840 293.7 870 299.3L900 305L900 0L870 0C840 0 780 0 720 0C660 0 600 0 540 0C480 0 420 0 360 0C300 0 240 0 180 0C120 0 60 0 30 0L0 0Z" fill="#fa9424"></path><path d="M0 157L30 169.8C60 182.7 120 208.3 180 207.2C240 206 300 178 360 157.8C420 137.7 480 125.3 540 126.2C600 127 660 141 720 155.3C780 169.7 840 184.3 870 191.7L900 199L900 0L870 0C840 0 780 0 720 0C660 0 600 0 540 0C480 0 420 0 360 0C300 0 240 0 180 0C120 0 60 0 30 0L0 0Z" fill="#f98619"></path><path d="M0 27L30 42.7C60 58.3 120 89.7 180 90.5C240 91.3 300 61.7 360 55.5C420 49.3 480 66.7 540 78C600 89.3 660 94.7 720 88.5C780 82.3 840 64.7 870 55.8L900 47L900 0L870 0C840 0 780 0 720 0C660 0 600 0 540 0C480 0 420 0 360 0C300 0 240 0 180 0C120 0 60 0 30 0L0 0Z" fill="#f7770f"></path></svg>